<svg xmlns="http://www.w3.org/2000/svg" viewBox="0 0 716.5 161.54"><defs><style>.cls-1{fill:none;}.cls-1,.cls-3{stroke:#fff;stroke-linecap:round;stroke-linejoin:round;stroke-width:10px;}.cls-2,.cls-3{fill:#fff;}</style></defs><g id="レイヤー_2" data-name="レイヤー 2"><g id="レイヤー_1-2" data-name="レイヤー 1"><rect class="cls-1" x="33.33" y="5" width="76.66" height="42.78"/><polygon class="cls-2" points="79.76 26.39 63.56 13.43 63.56 39.35 79.76 26.39"/><rect class="cls-1" x="89.84" y="27.77" width="76.66" height="42.78"/><polygon class="cls-2" points="136.27 49.16 120.07 36.2 120.07 62.12 136.27 49.16"/><rect class="cls-3" x="5" y="111.97" width="127.32" height="42.92"/><polygon class="cls-3" points="176.09 133.35 132.32 154.88 132.32 111.97 176.09 90.43 176.09 133.35"/><polygon class="cls-1" points="132.32 111.97 5 111.97 48.77 90.43 176.09 90.43 132.32 111.97"/><path class="cls-2" d="M258.64,78.44c-2.8,1.39-8.95,2.92-16.79,2.92-20.52,0-33-12.89-33-32.59,0-21.27,14.85-34.12,34.63-34.12,7.78,0,13.28,1.57,15.67,2.85l-2.57,9.43A30.54,30.54,0,0,0,244,24.39c-13.19,0-22.68,8.24-22.68,23.79,0,14.26,8.31,23.29,22.52,23.29a34.53,34.53,0,0,0,12.9-2.34Z" transform="translate(0 -10.86)"/><path class="cls-2" d="M268.24,12.2h11.82V40h.19a16.92,16.92,0,0,1,13.95-7.43c7.95,0,16.34,5.27,16.34,20.27V80.35H298.71V54.13c0-6.77-2.44-11.93-9-11.93a9.75,9.75,0,0,0-9.15,6.63,10,10,0,0,0-.52,3.57V80.35H268.24Z" transform="translate(0 -10.86)"/><path class="cls-2" d="M331.46,60.25c.32,8.47,6.87,12.17,14.44,12.17a35.6,35.6,0,0,0,12.89-2.16l1.75,8.13a42.19,42.19,0,0,1-16.33,3c-15.17,0-24.06-9.38-24.06-23.7,0-12.89,7.83-25.1,22.86-25.1,15.19,0,20.13,12.49,20.13,22.73a25.2,25.2,0,0,1-.41,5ZM352,52c.05-4.33-1.83-11.39-9.75-11.39C335,40.63,332,47.24,331.45,52Z" transform="translate(0 -10.86)"/><path class="cls-2" d="M407,79a33.6,33.6,0,0,1-13.19,2.41c-14.65,0-24.09-9.4-24.09-23.9,0-14,9.56-24.87,26-24.87a30.69,30.69,0,0,1,11.41,2.13L405,43.61a19.88,19.88,0,0,0-8.94-1.83c-9,0-14.35,6.59-14.31,15.15,0,9.59,6.3,15.08,14.35,15.08a23,23,0,0,0,9.28-1.84Z" transform="translate(0 -10.86)"/><path class="cls-2" d="M427.59,54.11h.19c1.11-1.82,2.46-3.81,3.69-5.48l11.39-15h14.2L439.73,52.69,459.5,80.35H445L431.57,59.69l-4,4.74V80.35H415.78V12.2h11.81Z" transform="translate(0 -10.86)"/><path class="cls-2" d="M499.74,80.35l-20.95-64.7h12.9l8.82,29.42c2.5,8.16,4.66,15.73,6.33,23.56h.21c1.72-7.63,4.06-15.53,6.58-23.38l9.44-29.6h12.58l-22.37,64.7Z" transform="translate(0 -10.86)"/><path class="cls-2" d="M554.73,20.54c0,3.53-2.55,6.37-6.73,6.37a6.21,6.21,0,0,1-6.48-6.37,6.61,6.61,0,0,1,13.21,0ZM542.22,80.35V33.62H554V80.35Z" transform="translate(0 -10.86)"/><path class="cls-2" d="M609.85,12.2v55c0,4.79.17,9.94.38,13.11H599.71l-.53-7.4H599c-2.79,5.23-8.43,8.46-15.18,8.46-11.16,0-20-9.52-20-23.89-.08-15.65,9.71-25,21-25,6.4,0,11,2.64,13.09,6.09H598V12.2ZM598,53.09a16,16,0,0,0-.26-3.08,10.38,10.38,0,0,0-10.16-8.3c-7.62,0-11.83,6.71-11.83,15.37S580,72,587.48,72a10.48,10.48,0,0,0,10.2-8.41,14,14,0,0,0,.35-3.45Z" transform="translate(0 -10.86)"/><path class="cls-2" d="M630.88,60.25c.32,8.47,6.87,12.17,14.44,12.17a35.6,35.6,0,0,0,12.89-2.16L660,78.39a42.22,42.22,0,0,1-16.33,3c-15.17,0-24.06-9.38-24.06-23.7,0-12.89,7.83-25.1,22.86-25.1,15.19,0,20.13,12.49,20.13,22.73a24.28,24.28,0,0,1-.42,5ZM651.44,52c0-4.33-1.83-11.39-9.75-11.39-7.27,0-10.3,6.61-10.83,11.39Z" transform="translate(0 -10.86)"/><path class="cls-2" d="M716.5,56.53c0,17.17-12.06,24.88-24,24.88-13.18,0-23.38-9.1-23.38-24.08,0-15.33,10.09-24.77,24.18-24.77C707.19,32.56,716.5,42.36,716.5,56.53Zm-35.25.5c0,9,4.49,15.79,11.62,15.79,6.78,0,11.48-6.54,11.48-15.94,0-7.35-3.25-15.73-11.4-15.73C684.65,41.15,681.25,49.24,681.25,57Z" transform="translate(0 -10.86)"/><path class="cls-2" d="M212.19,106.65H224v54.78h26.61v9.92H212.19Z" transform="translate(0 -10.86)"/><path class="cls-2" d="M285.41,171.35l-.81-5.21h-.29c-2.83,3.69-7.72,6.26-13.77,6.26-9.48,0-14.73-6.77-14.73-13.9,0-11.79,10.5-17.76,27.72-17.69V140c0-3.07-1.22-8.18-9.49-8.15a25,25,0,0,0-12.57,3.49l-2.34-7.67c3.53-2.15,9.58-4.15,16.94-4.15,15,0,19.27,9.45,19.27,19.7v16.83a70.79,70.79,0,0,0,.72,11.26Zm-1.57-22.89c-8.34-.11-16.31,1.65-16.31,8.76,0,4.58,3,6.74,6.73,6.74a9.62,9.62,0,0,0,9.25-6.47,9.07,9.07,0,0,0,.33-2.57Z" transform="translate(0 -10.86)"/><path class="cls-2" d="M321.41,111.23v13.39h11.24v8.8H321.41V154c0,5.72,1.52,8.63,6,8.63a17.57,17.57,0,0,0,4.59-.52l.24,9a26.44,26.44,0,0,1-8.6,1.21c-4.35,0-8-1.47-10.16-3.85-2.54-2.68-3.69-7-3.69-13.1v-22h-6.67v-8.8h6.67V114Z" transform="translate(0 -10.86)"/><path class="cls-2" d="M349.9,151.25c.31,8.47,6.87,12.17,14.43,12.17a35.62,35.62,0,0,0,12.9-2.16l1.75,8.13a42.3,42.3,0,0,1-16.34,3c-15.17,0-24.06-9.37-24.06-23.69,0-12.9,7.83-25.1,22.86-25.1,15.19,0,20.14,12.49,20.14,22.73a25.11,25.11,0,0,1-.42,5ZM370.45,143c.05-4.32-1.83-11.38-9.75-11.38-7.27,0-10.3,6.6-10.82,11.38Z" transform="translate(0 -10.86)"/><path class="cls-2" d="M391.11,139.64c0-6.26-.13-10.86-.39-15H401l.43,8.88h.33c2.31-6.58,7.76-9.94,12.8-9.94a11.3,11.3,0,0,1,2.77.26V135a15.49,15.49,0,0,0-3.46-.34c-5.63,0-9.54,3.58-10.6,8.94a19.46,19.46,0,0,0-.3,3.56v24.24H391.11Z" transform="translate(0 -10.86)"/><path class="cls-2" d="M423.81,164.83c0-4.46,3-7.63,7.32-7.63s7.24,3.1,7.28,7.63c0,4.35-2.91,7.57-7.33,7.57A7.13,7.13,0,0,1,423.81,164.83Z" transform="translate(0 -10.86)"/></g></g></svg>