<svg xmlns="http://www.w3.org/2000/svg" viewBox="0 0 345.78 55.57"><defs><style>.cls-1{fill:#fff;}.cls-2{fill:#231815;}</style></defs><g id="レイヤー_2" data-name="レイヤー 2"><g id="レイヤー_1-2" data-name="レイヤー 1"><path class="cls-1" d="M49.5,32.71H5.26A5.27,5.27,0,0,1,0,27.45V5.76A5.27,5.27,0,0,1,5.26.5H49.5a5.27,5.27,0,0,1,5.26,5.26V27.45A5.27,5.27,0,0,1,49.5,32.71ZM5.26,3.72a2,2,0,0,0-2,2V27.45a2,2,0,0,0,2,2H49.5a2,2,0,0,0,2-2V5.76a2,2,0,0,0-2-2ZM30.65,16.6l-6.54-5.22V21.83Z" transform="translate(0 -0.5)"/><rect class="cls-1" x="7.14" y="23.36" width="54.76" height="32.21" rx="5.26"/><rect class="cls-1" x="10.36" y="26.58" width="48.32" height="25.77" rx="2.04"/><polygon class="cls-2" points="37.79 39.46 31.26 34.24 31.26 44.69 37.79 39.46"/><path class="cls-1" d="M113.59,29.23c-.21-4.53-.44-10-.42-14.75H113c-1.16,4.3-2.62,9-4.14,13.46l-5.14,15.17H98.82l-4.65-15c-1.37-4.5-2.62-9.26-3.54-13.67h-.12c-.15,4.59-.36,10.19-.62,15l-.78,14.08h-6l2.33-35h8.41l4.57,14.07c1.26,4.14,2.38,8.3,3.22,12.21h.16c.94-3.83,2.14-8.11,3.5-12.24l4.86-14h8.31l2,35h-6.24Z" transform="translate(0 -0.5)"/><path class="cls-1" d="M149.42,35.94c0,3,.1,5.52.21,7.58H144l-.31-3.82h-.15a9.19,9.19,0,0,1-8.11,4.4c-4.61,0-8.81-2.78-8.81-11.05V18.21h6.4V32c0,4.21,1.33,6.9,4.72,6.9a5.31,5.31,0,0,0,4.89-3.42,5.43,5.43,0,0,0,.35-2V18.21h6.4Z" transform="translate(0 -0.5)"/><path class="cls-1" d="M156.36,6.6h6.41V43.52h-6.41Z" transform="translate(0 -0.5)"/><path class="cls-1" d="M177.05,11v7.25h6.09V23h-6.09V34.15c0,3.1.82,4.67,3.27,4.67a9.41,9.41,0,0,0,2.49-.28l.13,4.87a14.35,14.35,0,0,1-4.66.66,7.39,7.39,0,0,1-5.5-2.09c-1.38-1.45-2-3.78-2-7.1V23h-3.62V18.21h3.62V12.47Z" transform="translate(0 -0.5)"/><path class="cls-1" d="M194.76,11.12a3.58,3.58,0,0,1-7.16,0,3.58,3.58,0,0,1,7.16,0ZM188,43.52V18.21h6.4V43.52Z" transform="translate(0 -0.5)"/><path class="cls-1" d="M241.87,29.23c-.21-4.53-.44-10-.42-14.75h-.14c-1.16,4.3-2.62,9-4.14,13.46L232,43.11H227.1l-4.64-15c-1.38-4.5-2.63-9.26-3.55-13.67h-.11c-.16,4.59-.37,10.19-.63,15l-.78,14.08h-6l2.33-35h8.41l4.57,14.07c1.26,4.14,2.38,8.3,3.22,12.21h.16c.94-3.83,2.14-8.11,3.5-12.24l4.86-14h8.31l2,35h-6.24Z" transform="translate(0 -0.5)"/><path class="cls-1" d="M279.11,30.62c0,9.3-6.53,13.48-13,13.48-7.14,0-12.67-4.93-12.67-13,0-8.3,5.47-13.41,13.1-13.41S279.11,22.94,279.11,30.62Zm-19.1.27c0,4.87,2.44,8.55,6.3,8.55,3.67,0,6.22-3.54,6.22-8.63,0-4-1.76-8.52-6.18-8.52S260,26.67,260,30.89Z" transform="translate(0 -0.5)"/><path class="cls-1" d="M288.42,18.21l4.11,12.85c.72,2.23,1.25,4.27,1.72,6.33h.16c.47-2.1,1-4.08,1.72-6.33l4-12.85h6.73L297.2,43.52h-6.3l-9.4-25.31Z" transform="translate(0 -0.5)"/><path class="cls-1" d="M317.58,11.12a3.4,3.4,0,0,1-3.65,3.46,3.36,3.36,0,0,1-3.5-3.46,3.58,3.58,0,0,1,7.15,0Zm-6.78,32.4V18.21h6.41V43.52Z" transform="translate(0 -0.5)"/><path class="cls-1" d="M328.62,32.64c.17,4.58,3.72,6.59,7.82,6.59a19.25,19.25,0,0,0,7-1.17l.95,4.4a22.89,22.89,0,0,1-8.85,1.61c-8.22,0-13-5.08-13-12.84,0-7,4.24-13.59,12.38-13.59S345.78,24.4,345.78,30a12.84,12.84,0,0,1-.23,2.69Zm11.13-4.47c0-2.34-1-6.16-5.28-6.16-3.94,0-5.58,3.57-5.86,6.16Z" transform="translate(0 -0.5)"/></g></g></svg>