<svg xmlns="http://www.w3.org/2000/svg" viewBox="0 0 749.2 118.83"><defs><style>.cls-1{fill:#fff;}.cls-2{fill:none;stroke:#fff;stroke-linecap:round;stroke-linejoin:round;stroke-width:7px;}</style></defs><g id="レイヤー_2" data-name="レイヤー 2"><g id="レイヤー_1-2" data-name="レイヤー 1"><path class="cls-1" d="M190.4,27.05v64H178.7v-64Z"/><path class="cls-1" d="M211.85,26,210,50.42H203L201.09,26Z"/><path class="cls-1" d="M222.19,23.63h11.7V91.08h-11.7Z"/><path class="cls-1" d="M246.6,23.63h11.71V91.08H246.6Z"/><path class="cls-1" d="M324.61,89.69a33.19,33.19,0,0,1-13.05,2.38c-14.5,0-23.84-9.3-23.84-23.65,0-13.85,9.46-24.61,25.73-24.61a30.28,30.28,0,0,1,11.29,2.11l-2.07,8.79a19.88,19.88,0,0,0-8.85-1.8c-8.92,0-14.2,6.52-14.16,15,0,9.49,6.23,14.93,14.2,14.93A22.78,22.78,0,0,0,323,81Z"/><path class="cls-1" d="M333.34,23.63H345V51.14h.19A16.74,16.74,0,0,1,359,43.78c7.86,0,16.16,5.22,16.16,20.07V91.08H363.5V65.13c0-6.71-2.42-11.81-8.89-11.81a9.65,9.65,0,0,0-9.06,6.56,10,10,0,0,0-.51,3.53V91.08h-11.7Z"/><path class="cls-1" d="M395.91,71.19c.31,8.38,6.79,12,14.28,12A35.13,35.13,0,0,0,423,81.09l1.73,8a41.85,41.85,0,0,1-16.16,2.93c-15,0-23.81-9.27-23.81-23.44,0-12.77,7.74-24.85,22.62-24.85,15,0,19.93,12.36,19.93,22.5a23.93,23.93,0,0,1-.42,4.91ZM416.25,63c.05-4.29-1.82-11.27-9.65-11.27-7.2,0-10.19,6.54-10.71,11.27Z"/><path class="cls-1" d="M470.63,89.69a33.25,33.25,0,0,1-13.06,2.38c-14.5,0-23.84-9.3-23.84-23.65,0-13.85,9.46-24.61,25.73-24.61a30.28,30.28,0,0,1,11.29,2.11l-2.07,8.79a19.84,19.84,0,0,0-8.85-1.8c-8.92,0-14.2,6.52-14.16,15,0,9.49,6.23,14.93,14.2,14.93A22.74,22.74,0,0,0,469.05,81Z"/><path class="cls-1" d="M491,65.11h.19c1.1-1.81,2.44-3.77,3.65-5.43l11.28-14.85H520.2L503.05,63.71l19.56,27.37H508.26L495,70.63,491,75.32V91.08H479.34V23.63H491Z"/><path class="cls-1" d="M547.37,23.63h11.7V91.08h-11.7Z"/><path class="cls-1" d="M597.8,91.08l-.8-5.16h-.28a16.93,16.93,0,0,1-13.63,6.2c-9.39,0-14.59-6.7-14.59-13.75,0-11.67,10.4-17.58,27.44-17.51v-.77c0-3-1.21-8.09-9.39-8.06a24.67,24.67,0,0,0-12.44,3.45l-2.31-7.59c3.49-2.12,9.48-4.11,16.76-4.11,14.83,0,19.07,9.36,19.07,19.5V79.94a69.35,69.35,0,0,0,.72,11.14Zm-1.55-22.65c-8.25-.11-16.15,1.63-16.15,8.67,0,4.53,3,6.66,6.67,6.66a9.51,9.51,0,0,0,9.15-6.4,8.87,8.87,0,0,0,.33-2.54Z"/><path class="cls-1" d="M633.42,31.58V44.83h11.13v8.71H633.42V74c0,5.66,1.51,8.54,6,8.54a17.71,17.71,0,0,0,4.54-.51l.24,8.89a26.18,26.18,0,0,1-8.51,1.2c-4.3,0-7.88-1.46-10-3.81-2.51-2.65-3.66-6.91-3.66-13V53.54h-6.6V44.83H622V34.35Z"/><path class="cls-1" d="M661.62,71.19c.31,8.38,6.79,12,14.28,12a35.13,35.13,0,0,0,12.76-2.14l1.73,8a41.85,41.85,0,0,1-16.16,2.93c-15,0-23.81-9.27-23.81-23.44,0-12.77,7.74-24.85,22.62-24.85,15,0,19.93,12.36,19.93,22.5a23.93,23.93,0,0,1-.42,4.91ZM682,63c0-4.29-1.82-11.27-9.65-11.27-7.2,0-10.19,6.54-10.71,11.27Z"/><path class="cls-1" d="M702.39,59.7c0-6.2-.12-10.75-.38-14.87h10.13l.44,8.79h.32c2.28-6.52,7.67-9.84,12.66-9.84a11.13,11.13,0,0,1,2.75.26v11a15.87,15.87,0,0,0-3.43-.33c-5.57,0-9.44,3.55-10.48,8.85a19.09,19.09,0,0,0-.3,3.52v24H702.39Z"/><path class="cls-1" d="M734.75,84.62c0-4.41,3-7.55,7.25-7.55s7.16,3.07,7.2,7.55c0,4.31-2.87,7.5-7.24,7.5A7.07,7.07,0,0,1,734.75,84.62Z"/><rect class="cls-2" x="27.4" y="3.5" width="53.42" height="29.81"/><polygon class="cls-1" points="58.81 18.4 49.4 10.88 49.4 25.93 58.81 18.4"/><rect class="cls-2" x="66.77" y="19.37" width="53.42" height="29.81"/><polygon class="cls-1" points="98.18 34.27 88.77 26.74 88.77 41.8 98.18 34.27"/><rect class="cls-2" x="3.5" y="81.19" width="105.77" height="34.13"/><polygon class="cls-2" points="144.08 98.2 109.27 115.33 109.27 81.19 144.08 64.06 144.08 98.2"/><polygon class="cls-2" points="109.27 81.19 3.5 81.19 38.31 64.06 144.08 64.06 109.27 81.19"/></g></g></svg>